<?xml version="1.0" standalone="no"?>
<!DOCTYPE svg PUBLIC "-//W3C//DTD SVG 20010904//EN"
 "http://www.w3.org/TR/2001/REC-SVG-20010904/DTD/svg10.dtd">
<svg version="1.0" xmlns="http://www.w3.org/2000/svg"
 width="958.000000pt" height="780.000000pt" viewBox="0 0 958.000000 780.000000"
 preserveAspectRatio="xMidYMid meet">

<g transform="translate(0.000000,780.000000) scale(0.100000,-0.100000)"
fill="#000000" stroke="none">
<path d="M669 5966 c-208 -61 -381 -241 -434 -451 -23 -91 -22 -1499 1 -1588
56 -218 233 -395 451 -451 55 -14 460 -16 4100 -16 4473 0 4086 -6 4229 66
140 70 257 209 312 369 l27 80 0 745 c0 694 -1 749 -18 804 -56 181 -174 324
-332 401 -144 71 239 65 -4225 64 l-4035 0 -76 -23z m958 -651 c41 -27 63 -74
63 -135 0 -45 -11 -80 -63 -200 l-63 -145 -82 -3 c-62 -2 -82 0 -82 10 0 7 13
56 29 108 l29 95 -29 27 c-86 80 -53 231 56 261 33 9 116 -1 142 -18z m6938
-40 c192 -40 348 -191 386 -373 16 -79 6 -213 -21 -285 -12 -32 -43 -86 -68
-120 -182 -239 -588 -265 -811 -52 -200 190 -200 509 -2 698 129 123 323 173
516 132z m-7625 -370 l0 -365 228 -2 227 -3 3 -107 3 -108 -366 0 -365 0 0
475 0 475 135 0 135 0 0 -365z m1580 337 c73 -29 123 -71 149 -127 43 -92 19
-202 -59 -268 l-38 -31 49 -28 c145 -83 156 -292 21 -395 -82 -62 -111 -66
-479 -71 l-333 -3 0 476 0 477 318 -4 c298 -4 320 -5 372 -26z m1143 -440
c114 -257 207 -470 207 -475 0 -4 -63 -7 -139 -7 l-139 0 -30 73 c-16 39 -32
80 -35 90 -6 15 -25 17 -209 17 l-203 0 -35 -90 -35 -90 -139 0 c-127 0 -138
1 -133 18 3 9 97 223 208 475 l204 457 135 0 135 0 208 -468z m853 457 c128
-24 235 -104 275 -208 27 -70 29 -197 5 -256 -26 -62 -63 -109 -112 -145 -27
-19 -43 -38 -40 -46 3 -7 46 -71 96 -143 49 -71 90 -132 90 -135 0 -3 -65 -6
-144 -6 l-145 0 -84 123 -84 122 -71 3 -72 3 0 -126 0 -125 -140 0 -140 0 0
468 c0 258 3 472 7 475 11 11 495 8 559 -4z m1131 -12 c186 -62 243 -260 111
-388 l-47 -47 29 -12 c40 -17 93 -70 115 -116 12 -25 18 -61 18 -105 0 -112
-57 -186 -178 -231 -57 -21 -79 -23 -392 -26 l-333 -4 0 477 0 477 313 -4
c260 -4 321 -7 364 -21z m1113 -82 l0 -105 -375 0 -375 0 0 105 0 105 375 0
375 0 0 -105z m754 90 c90 -19 161 -60 213 -123 53 -65 68 -114 68 -222 0 -73
-4 -93 -28 -142 -26 -53 -72 -103 -126 -139 l-24 -15 83 -120 c46 -65 92 -131
102 -146 l19 -28 -148 0 -148 0 -84 125 -85 125 -73 0 -73 0 0 -125 0 -125
-135 0 -135 0 0 475 0 475 253 0 c182 0 271 -4 321 -15z m-812 -455 l0 -95
-221 -3 -221 -2 0 100 0 100 221 -2 221 -3 0 -95z m78 -375 l0 -105 -385 0
-385 0 0 105 0 105 385 0 385 0 0 -105z m-5150 -435 l0 -60 85 0 85 0 0 60 c0
47 3 60 15 60 13 0 15 -22 15 -136 0 -104 -3 -135 -12 -132 -8 3 -14 28 -16
66 l-3 62 -84 0 -85 0 0 -66 c0 -48 -3 -65 -12 -62 -9 3 -14 42 -16 136 -2
113 0 132 13 132 12 0 15 -13 15 -60z m604 -62 c74 -157 71 -148 53 -148 -9 0
-21 16 -28 35 l-13 35 -82 0 -82 0 -12 -35 c-6 -19 -18 -35 -26 -35 -8 0 -14
2 -14 4 0 2 18 44 41 93 23 48 49 107 60 131 10 23 24 42 32 42 8 0 39 -53 71
-122z m286 -13 c0 -83 -4 -135 -10 -135 -6 0 -10 52 -10 135 0 83 4 135 10
135 6 0 10 -52 10 -135z m431 106 c39 -40 39 -82 -1 -122 l-30 -30 24 -32 c35
-48 39 -57 24 -57 -8 0 -29 20 -46 46 -31 44 -34 45 -80 42 l-47 -3 -3 -42
c-2 -24 -7 -43 -13 -43 -5 0 -9 57 -9 135 l0 135 76 0 c70 0 78 -2 105 -29z
m434 17 c14 -6 25 -17 25 -25 0 -17 -5 -16 -36 3 -17 12 -38 15 -70 11 -58 -6
-93 -39 -101 -94 -13 -97 83 -163 171 -118 37 20 48 9 17 -16 -16 -14 -39 -19
-78 -19 -51 0 -59 3 -93 38 -50 50 -60 96 -31 154 11 24 33 51 48 60 32 20
110 23 148 6z m267 -89 c3 -96 4 -102 31 -125 36 -30 78 -31 113 -1 25 22 27
30 32 125 2 56 9 102 13 102 5 0 9 -43 9 -95 0 -140 -23 -175 -115 -175 -38 0
-52 5 -76 29 -28 29 -29 32 -29 135 0 58 4 106 9 106 5 0 11 -45 13 -101z
m608 91 c0 -5 -22 -10 -50 -10 l-50 0 0 -125 c0 -77 -4 -125 -10 -125 -6 0
-10 48 -10 125 l0 125 -50 0 c-27 0 -50 5 -50 10 0 6 43 10 110 10 67 0 110
-4 110 -10z m328 4 c12 -4 22 -13 22 -21 0 -11 -5 -13 -17 -7 -32 13 -90 16
-112 5 -24 -13 -28 -53 -7 -70 7 -6 38 -18 67 -27 30 -9 60 -21 67 -26 19 -16
15 -75 -8 -98 -35 -35 -170 -21 -170 17 0 16 1 16 36 -2 37 -19 84 -19 112 1
46 32 16 75 -62 90 -45 8 -86 43 -86 74 0 37 44 70 92 70 24 0 53 -3 66 -6z
m630 -6 c21 -21 14 -65 -13 -86 -14 -11 -25 -24 -25 -29 0 -5 16 -24 34 -42
l35 -34 7 27 c3 14 10 26 15 26 12 0 11 -31 -1 -50 -6 -10 -3 -21 12 -37 26
-28 16 -43 -11 -19 -18 17 -22 17 -43 2 -33 -23 -113 -21 -138 4 -30 30 -26
73 10 104 30 25 30 25 14 60 -16 32 -16 36 0 60 13 20 25 26 54 26 21 0 43 -5
50 -12z m683 1 c11 -5 17 -14 14 -20 -4 -6 -13 -5 -25 1 -49 26 -130 1 -130
-40 0 -24 17 -35 79 -54 93 -27 116 -72 65 -123 -23 -23 -31 -25 -85 -21 -37
3 -66 10 -76 21 -24 24 -10 31 26 13 62 -33 131 -15 131 33 0 30 -8 35 -93 61
-50 15 -67 35 -67 75 0 24 7 39 22 49 26 18 109 21 139 5z m269 -49 l0 -60 90
0 90 0 0 60 c0 33 4 60 10 60 6 0 10 -52 10 -135 0 -79 -4 -135 -10 -135 -5 0
-10 28 -12 63 l-3 62 -87 3 -88 3 0 -66 c0 -37 -4 -65 -10 -65 -6 0 -10 52
-10 135 0 83 4 135 10 135 6 0 10 -27 10 -60z m610 -74 c33 -71 60 -130 60
-132 0 -2 -6 -4 -14 -4 -8 0 -20 16 -27 35 l-13 35 -81 0 -81 0 -13 -35 c-7
-19 -19 -35 -27 -35 -8 0 -14 2 -14 4 0 2 23 52 51 112 28 60 55 119 60 132
17 43 39 18 99 -112z m280 19 c35 -77 56 -111 62 -103 4 7 26 56 49 108 44
100 55 118 65 107 10 -9 -107 -267 -121 -267 -13 0 -14 2 -86 163 -31 69 -43
107 -35 107 7 0 37 -52 66 -115z m564 105 c-5 -5 -43 -10 -84 -12 l-75 -3 -3
-47 -3 -48 75 0 c97 0 100 -18 4 -22 l-73 -3 0 -50 0 -50 83 -3 c114 -4 104
-22 -13 -22 l-95 0 0 135 0 135 97 0 c61 0 94 -3 87 -10z m370 4 c9 -3 16 -13
16 -21 0 -11 -5 -13 -17 -7 -32 13 -90 16 -112 5 -28 -16 -27 -57 2 -74 12 -8
43 -20 69 -27 26 -7 53 -19 59 -27 21 -24 15 -74 -10 -95 -32 -25 -120 -25
-152 1 -31 25 -20 36 17 16 37 -19 84 -19 112 1 46 32 16 75 -62 90 -45 8 -86
43 -86 74 0 12 11 32 25 45 19 20 34 25 74 25 27 0 56 -3 65 -6z"/>
<path d="M8336 5045 c-172 -61 -212 -327 -68 -457 47 -42 94 -58 172 -58 144
0 243 108 243 265 -1 115 -45 195 -135 239 -60 30 -147 35 -212 11z"/>
<path d="M2100 4985 l0 -85 129 0 c115 0 131 2 155 21 19 15 26 30 26 55 0 78
-33 94 -196 94 l-114 0 0 -85z"/>
<path d="M2100 4611 l0 -91 140 0 c106 0 148 4 170 15 55 28 66 85 26 132
l-24 28 -156 3 -156 3 0 -90z"/>
<path d="M3258 4851 c-31 -77 -53 -142 -50 -145 10 -10 222 -6 222 3 0 13
-100 264 -109 274 -4 4 -32 -56 -63 -132z"/>
<path d="M4230 4920 l0 -143 108 5 c82 3 115 9 140 23 62 37 80 125 39 186
-32 48 -63 59 -182 66 l-105 6 0 -143z"/>
<path d="M5240 4984 l0 -86 134 4 c153 3 176 13 176 75 0 77 -34 93 -196 93
l-114 0 0 -86z"/>
<path d="M5240 4611 l0 -91 140 0 c106 0 148 4 170 15 55 28 66 85 26 132
l-24 28 -156 3 -156 3 0 -90z"/>
<path d="M7218 5054 c-5 -4 -8 -68 -8 -142 l0 -134 108 4 c154 6 202 38 202
138 0 95 -50 129 -199 137 -53 3 -99 2 -103 -3z"/>
<path d="M2133 3954 l-31 -69 34 -3 c19 -2 47 -2 62 0 l28 3 -31 69 -31 69
-31 -69z"/>
<path d="M2790 3960 l0 -70 58 0 c74 0 102 18 102 66 0 53 -28 74 -100 74
l-60 0 0 -70z"/>
<path d="M5137 4024 c-12 -13 -8 -51 8 -64 12 -10 20 -9 41 4 36 24 30 60 -11
64 -17 2 -34 0 -38 -4z"/>
<path d="M5111 3884 c-26 -33 -26 -46 -3 -67 23 -21 81 -22 108 -3 18 14 18
16 -21 55 -21 23 -45 41 -51 41 -7 0 -22 -12 -33 -26z"/>
<path d="M6672 3950 l-31 -70 64 0 64 0 -30 67 c-17 37 -31 69 -33 70 -2 2
-17 -28 -34 -67z"/>
</g>
</svg>
